<?xml version="1.0" encoding="UTF-8"?>
<svg width="12" height="12" version="1.1" viewBox="0 0 12 12" xml:space="preserve" xmlns="http://www.w3.org/2000/svg" xmlns:cc="http://creativecommons.org/ns#" xmlns:dc="http://purl.org/dc/elements/1.1/" xmlns:rdf="http://www.w3.org/1999/02/22-rdf-syntax-ns#"><metadata><rdf:RDF><cc:Work rdf:about=""><dc:format>image/svg+xml</dc:format><dc:type rdf:resource="http://purl.org/dc/dcmitype/StillImage"/><dc:title/></cc:Work></rdf:RDF></metadata><g transform="matrix(1.3333 0 0 -1.3333 -756.22 506.44)"><g transform="matrix(.070555 0 0 .070555 527.15 352.92)"><g transform="translate(659.24 335.61)"><path d="m0 0v9.65c2.081 0.62 4.045 1.618 5.774 2.979 4.404 3.421 6.932 8.721 6.815 14.295-0.197 9.744-8.262 17.49-18.005 17.292-9.743-0.197-17.489-8.262-17.292-18.005 0.157-7.775 5.327-14.263 12.36-16.474v-10.243c-10.105-1.829-18.825-7.475-24.53-15.348l-12.999 6.697c0.605 2.04 0.93 4.164 0.94 6.314 0.053 12.464-10.008 22.617-22.471 22.67-12.464 0.053-22.613-10.008-22.67-22.472-0.052-12.463 10.008-22.612 22.472-22.669 5.783-0.023 11.279 2.175 15.432 6.02l13.932-7.177c-1.105-3.503-1.702-7.223-1.702-11.078 0-4.075 0.672-7.994 1.9-11.67l-8.218-4.156c-2.176 1.868-4.847 3.12-7.742 3.536-8.327 1.199-16.051-4.583-17.25-12.91-1.199-8.328 4.583-16.051 12.91-17.25 8.322-1.212 16.055 4.541 17.287 12.86 0.321 2.092 0.173 4.203-0.38 6.207l7.221 3.652c6.813-10.774 19.035-17.959 32.984-17.959 21.381 0 38.713 16.874 38.713 37.69 0 19.755-15.614 35.949-35.481 37.549" fill="#205cb3"/></g><g transform="translate(655.97 290.91)"><path d="m0 0c-3.967 0-7.192 3.152-7.192 7.036 0 3.877 3.225 7.031 7.192 7.031 3.965 0 7.189-3.154 7.189-7.031 0-3.884-3.224-7.036-7.189-7.036m22.415 4.725v4.817c8e-3 0.335-6.159 2.526-6.159 2.526l-1.135 2.688s2.638 5.943 2.405 6.176l-3.49 3.399c-0.244 0.231-6.187-2.474-6.187-2.474l-2.739 1.103s-2.423 6.027-2.758 6.027h-4.92c-0.343 0-2.586-6.037-2.586-6.037l-2.737-1.114s-6.065 2.586-6.299 2.352l-3.479-3.409c-0.244-0.231 2.527-6.055 2.527-6.055l-1.127-2.687s-6.156-2.373-6.156-2.687v-4.827c0-0.335 6.166-2.537 6.166-2.537l1.135-2.677s-2.636-5.943-2.402-6.166l3.479-3.417c0.242-0.223 6.185 2.485 6.185 2.485l2.75-1.106s2.414-6.026 2.749-6.026h4.928c0.335 0 2.576 6.036 2.576 6.036l2.75 1.114s6.054-2.586 6.288-2.352l3.487 3.409c0.244 0.231-2.534 6.055-2.534 6.055l1.134 2.687s6.149 2.373 6.149 2.697" fill="#fff"/></g><g transform="translate(589.8 346.41)"><path d="m0 0c-7.48 0.034-13.57-6-13.604-13.48-0.035-7.48 6-13.57 13.48-13.605 7.48-0.034 13.57 6.001 13.604 13.481 0.034 7.479-6 13.57-13.48 13.604" fill="#fff"/></g><g transform="translate(602.34 279.06)"><path d="m0 0c-4.626 0.679-8.925-2.519-9.604-7.145-0.679-4.625 2.519-8.924 7.145-9.603 4.626-0.68 8.924 2.518 9.604 7.144 0.318 2.051-0.158 4.15-1.33 5.862-1.307 2.026-3.427 3.391-5.815 3.742" fill="#fff"/></g><g transform="translate(648.12 369.93)"><path d="m0 0c-4.269-3.345-5.016-9.518-1.668-13.785 1.908-2.436 4.855-3.829 7.951-3.758 2.102 0.025 4.136 0.748 5.784 2.052 4.279 3.333 5.045 9.501 1.712 13.779-3.333 4.279-9.5 5.045-13.779 1.712" fill="#fff"/></g></g></g></svg>
